PathFileType	4	(X/Y/Z)	D:\MotionData\Pi-Spi Study\20230118_AMCsubject1\Trimmed_right_abd_18001_rotated.trc
DataRate	CameraRate	NumFrames	NumMarkers	Units	OrigDataRate	OrigDataStartFrame	OrigNumFrames
200.00	200.00	       11	35	mm	200.00	151	       200
Frame#	Time	C7			Sternum			r_AMC1			r_AMC2			r_AMC3			l_AMC1			l_AMC2			l_AMC3			PX			T8			r_humerous			r_elbow_medial			r_elbow_lateral			r_forearm			r_wrist_radius			r_wrist_ulna			r_MCP_1			r_MCP_3			l_humerous			l_elbow_medial			l_elbow_lateral			l_forearm			l_wrist_radius			l_wrist_ulna			l_MCP_1			l_MCP_3			r_ASIS			r_PSIS			l_ASIS			l_PSIS			r_IC			l_IC			TS			AI			AA			
		X1	Y1	Z1	X2	Y2	Z2	X3	Y3	Z3	X4	Y4	Z4	X5	Y5	Z5	X6	Y6	Z6	X7	Y7	Z7	X8	Y8	Z8	X9	Y9	Z9	X10	Y10	Z10	X11	Y11	Z11	X12	Y12	Z12	X13	Y13	Z13	X14	Y14	Z14	X15	Y15	Z15	X16	Y16	Z16	X17	Y17	Z17	X18	Y18	Z18	X19	Y19	Z19	X20	Y20	Z20	X21	Y21	Z21	X22	Y22	Z22	X23	Y23	Z23	X24	Y24	Z24	X25	Y25	Z25	X26	Y26	Z26	X27	Y27	Z27	X28	Y28	Z28	X29	Y29	Z29	X30	Y30	Z30	X31	Y31	Z31	X32	Y32	Z32	X33	Y33	Z33	X34	Y34	Z34	X35	Y35	Z35	

151	0.75	193.0547	1374.2797	-245.9185	329.7294	1322.6457	-223.6906	157.0558	1342.3241	-115.4287	185.929	1378.2471	-97.5746	188.7062	1396.6538	-137.7503	221.3364	1323.0852	-398.4738	261.7481	1316.5742	-429.4202	283.0761	1354.2517	-400.9802	391.6182	1131.5604	-207.2535	159.1595	1190.8743	-244.5511	265.3308	1475.1362	-79.1807	352.6575	1556.6522	13.3093	295.6093	1579.4305	13.3003	334.5051	1741.6697	27.2265	375.3538	1808.1998	2.898	363.8452	1801.4299	53.607	394.7058	1889.7719	5.7681	387.5973	1883.9064	52.9937	345.303	1127.1482	-426.0475	297.3748	993.5618	-381.3316	288.7434	987.5939	-433.5674	323.6488	841.9763	-474.756	337.3747	764.9351	-458.8275	359.4721	775.4495	-494.6395	352.4402	689.8997	-469.8978	367.0431	699.0737	-511.8502	352.7641	909.2286	-76.4806	170.2548	930.037	-169.5389	369.2563	892.7019	-335.0093	177.4735	922.9396	-272.2754	271.2151	972.4301	-53.7915	283.6893	940.9636	-378.6436	101.7317	1294.7555	-158.3654	120.3893	1221.0601	-89.9951	137.0731	1389.4321	-54.4866
152	0.755	193.0712	1374.2847	-245.9402	329.7138	1322.6362	-223.6858	157.0923	1342.3436	-115.391	185.934	1378.2353	-97.5732	188.7243	1396.6515	-137.7542	221.354	1323.0596	-398.4952	261.766	1316.5446	-429.4188	283.0959	1354.2362	-400.984	391.6549	1131.5707	-207.2522	159.1738	1190.8734	-244.5452	265.3425	1475.1229	-79.1685	352.6761	1556.6731	13.3198	295.6003	1579.4045	13.3366	334.5288	1741.6534	27.2223	375.3924	1808.1991	2.9186	363.8791	1801.4373	53.634	394.7466	1889.7565	5.7879	387.6554	1883.8879	53.0176	345.3307	1127.1255	-426.0093	297.3447	993.5618	-381.3241	288.7824	987.5989	-433.5307	323.6531	841.9458	-474.7337	337.3668	764.9365	-458.8239	359.4619	775.4149	-494.6152	352.3598	689.8288	-469.884	367.017	699.0402	-511.7901	352.809	909.2391	-76.4716	170.2703	930.0259	-169.5233	369.2864	892.7153	-335.0204	177.5133	922.9287	-272.2728	271.2505	972.4023	-53.7862	283.727	940.9349	-378.6247	101.7513	1294.7684	-158.3674	120.3934	1221.0598	-89.9902	137.1101	1389.4534	-54.5147
153	0.76	193.0695	1374.2719	-245.946	329.7327	1322.6577	-223.6887	157.0873	1342.36	-115.3941	185.9397	1378.2341	-97.5715	188.7403	1396.6529	-137.7703	221.3897	1323.0309	-398.4945	261.8125	1316.5541	-429.4208	283.1023	1354.2278	-400.9588	391.6755	1131.5883	-207.2168	159.1695	1190.8665	-244.5383	265.3566	1475.1289	-79.1766	352.6832	1556.6379	13.3367	295.6166	1579.4054	13.3333	334.5699	1741.6577	27.2457	375.4477	1808.1793	2.9407	363.8943	1801.428	53.6549	394.8071	1889.7406	5.8065	387.6882	1883.8551	53.0325	345.354	1127.0691	-426.0212	297.3362	993.5784	-381.2966	288.7947	987.5585	-433.4903	323.6502	841.9346	-474.6779	337.3642	764.9091	-458.7637	359.4511	775.4039	-494.5646	352.3943	689.8472	-469.7739	366.9926	699.0295	-511.7402	352.8525	909.2361	-76.4716	170.3043	930.0466	-169.5271	369.2806	892.7063	-335.0084	177.5145	922.9278	-272.2364	271.2704	972.4282	-53.7858	283.5391	941.1174	-378.6209	101.7452	1294.7814	-158.3942	120.4003	1221.0887	-90.0247	137.0816	1389.477	-54.5348
154	0.765	193.0912	1374.2626	-245.9459	329.7457	1322.6387	-223.6712	157.0866	1342.3805	-115.4239	185.9385	1378.2588	-97.5747	188.7428	1396.6537	-137.7607	221.4262	1323.0212	-398.4903	261.825	1316.5328	-429.4274	283.1349	1354.2098	-400.9672	391.7211	1131.6155	-207.2479	159.1839	1190.8595	-244.5446	265.3736	1475.1379	-79.1774	352.694	1556.6494	13.3548	295.6436	1579.4096	13.333	334.6074	1741.6545	27.2507	375.4778	1808.1509	2.9541	363.9422	1801.4168	53.6683	394.8894	1889.7405	5.8147	387.7465	1883.8594	53.0412	345.3325	1127.1138	-426.0179	297.3379	993.5747	-381.2883	288.7696	987.5723	-433.5067	323.6393	841.9008	-474.6447	337.922	764.9316	-458.9296	359.456	775.3863	-494.5619	352.3778	689.8137	-469.73	366.9857	698.9865	-511.7078	352.8706	909.2288	-76.4482	170.3136	930.0344	-169.5076	369.3161	892.7141	-335.0119	177.5369	922.9254	-272.2625	271.2812	972.4222	-53.7666	283.6037	941.0605	-378.6101	101.7836	1294.7972	-158.4157	120.3839	1221.1107	-90.0111	137.0847	1389.4915	-54.556
155	0.77	193.1039	1374.254	-245.9594	329.7746	1322.6583	-223.688	157.0956	1342.3637	-115.4283	185.9629	1378.2766	-97.6004	188.7592	1396.6553	-137.7561	221.4336	1323.0194	-398.5215	261.8558	1316.5319	-429.4167	283.1247	1354.2106	-400.974	391.7124	1131.6384	-207.2131	159.2045	1190.8522	-244.5439	265.4103	1475.1385	-79.1684	352.7112	1556.6439	13.3638	295.6524	1579.4176	13.3455	334.6217	1741.6443	27.278	375.5096	1808.1461	2.9697	363.9805	1801.4086	53.6902	394.9514	1889.7026	5.8512	387.8104	1883.8403	53.0667	345.3667	1127.0277	-425.9696	297.3444	993.5643	-381.256	288.7915	987.5336	-433.4629	323.6477	841.9014	-474.5754	337.9093	764.9352	-458.915	359.4715	775.3539	-494.4865	352.3822	689.7698	-469.6524	366.9779	698.9615	-511.6429	352.904	909.226	-76.449	170.3511	930.0257	-169.5057	369.3406	892.687	-335.0125	177.5559	922.9194	-272.2227	271.2844	972.4503	-53.7592	283.6723	940.9885	-378.6028	101.7526	1294.8189	-158.4206	120.3719	1221.0901	-90.0306	137.0975	1389.557	-54.5786
156	0.775	193.1096	1374.2769	-245.9533	329.7842	1322.6454	-223.6687	157.0794	1342.335	-115.5112	185.9991	1378.2906	-97.5726	188.7536	1396.6533	-137.7787	221.424	1323.0498	-398.5457	261.8859	1316.5144	-429.4196	283.1663	1354.1854	-400.9986	391.6865	1131.6195	-207.2199	159.2358	1190.8613	-244.5479	265.4271	1475.1461	-79.1498	352.7378	1556.6057	13.3645	295.6676	1579.4072	13.3695	334.6533	1741.6353	27.2545	375.5818	1808.1302	2.9936	364.0207	1801.3955	53.7198	395.0361	1889.6865	5.8673	387.8416	1883.8369	53.1152	345.382	1127.0244	-425.9608	297.3665	993.5547	-381.2045	288.4486	987.4012	-433.5476	323.6092	841.8682	-474.5435	337.9003	764.9061	-458.8674	359.4632	775.3378	-494.4532	352.3409	689.7921	-469.6071	366.968	698.9414	-511.5975	352.9022	909.205	-76.4822	170.3616	930.0127	-169.5031	369.3251	892.7247	-334.9894	177.5638	922.9226	-272.2204	271.3078	972.4415	-53.749	283.5832	941.0692	-378.622	101.8051	1294.8394	-158.4557	120.3359	1221.1245	-90.0197	137.3011	1389.3396	-54.8371
157	0.78	193.1226	1374.2575	-245.9587	329.7982	1322.6658	-223.6605	157.1292	1342.3682	-115.4658	185.9869	1378.2733	-97.6041	188.7761	1396.658	-137.7858	221.4405	1323.0386	-398.4986	261.9021	1316.5105	-429.4201	283.1676	1354.1879	-400.9921	391.713	1131.6196	-207.1952	159.2509	1190.8527	-244.5465	265.4166	1475.1338	-79.1324	352.745	1556.6162	13.4099	295.6963	1579.4152	13.3696	334.6998	1741.6333	27.3014	375.6164	1808.1178	3.0152	364.0452	1801.3889	53.7404	395.1044	1889.6672	5.9229	387.9145	1883.8345	53.1165	345.3781	1127.0521	-425.9566	297.3607	993.5415	-381.2076	288.5172	987.3796	-433.4835	323.6208	841.8632	-474.5041	337.8805	764.9048	-458.838	359.4706	775.3166	-494.405	352.3501	689.7415	-469.5645	366.9628	698.9112	-511.5547	352.9302	909.1981	-76.4765	170.4009	930.0108	-169.4966	369.4035	892.6996	-334.9884	177.5724	922.9081	-272.1897	271.3803	972.401	-53.7462	283.5967	941.0802	-378.5939	101.7962	1294.8655	-158.4723	120.3522	1221.1599	-90.05	137.1104	1389.6005	-54.6248
158	0.785	193.1519	1374.2629	-245.9709	329.789	1322.658	-223.6463	157.0818	1342.3583	-115.5489	186.0009	1378.2642	-97.6046	188.8046	1396.6656	-137.7764	221.4575	1323.0085	-398.5337	261.9199	1316.4928	-429.4163	283.1887	1354.1841	-400.9994	391.74	1131.6523	-207.1945	159.2767	1190.8554	-244.5603	265.4568	1475.1462	-79.1137	352.7547	1556.6074	13.4164	295.7179	1579.4138	13.3829	334.7032	1741.6317	27.3458	375.7063	1808.1075	3.0445	364.1139	1801.3889	53.7621	395.1964	1889.6702	5.9384	387.9958	1883.8162	53.1412	345.3886	1127.04	-425.9623	297.3773	993.5158	-381.1779	288.8041	987.4689	-433.373	323.6256	841.8455	-474.4674	337.2674	764.8426	-458.5872	359.4778	775.2878	-494.3724	352.361	689.7411	-469.5006	366.9442	698.8939	-511.5081	352.9548	909.186	-76.4683	170.4058	929.9955	-169.4849	369.3634	892.707	-334.9691	177.5998	922.9195	-272.1855	271.3899	972.3865	-53.7441	283.6317	941.0509	-378.6505	101.787	1294.9071	-158.4888	120.376	1221.1805	-90.0685	137.3283	1389.3959	-54.8514
159	0.79	193.1518	1374.2516	-245.9715	329.8185	1322.6583	-223.645	157.1268	1342.3898	-115.5345	186.0051	1378.2692	-97.608	188.8176	1396.6529	-137.7778	221.4788	1323.004	-398.5309	261.9374	1316.4823	-429.4103	283.2119	1354.1857	-401.0005	391.7473	1131.6367	-207.1801	159.3004	1190.8578	-244.532	265.4522	1475.1509	-79.1282	352.779	1556.6011	13.4168	295.7634	1579.4464	13.3885	334.769	1741.6204	27.3447	375.7609	1808.0922	3.0656	364.1512	1801.3789	53.7926	395.2754	1889.6415	5.9661	388.0452	1883.8064	53.2064	345.3738	1127.0363	-425.9571	297.3916	993.4972	-381.1334	288.8433	987.4941	-433.3072	323.5971	841.8287	-474.4276	337.2726	764.8276	-458.5246	359.4576	775.2806	-494.3159	352.3868	689.7078	-469.4132	366.9396	698.8807	-511.4613	352.951	909.2151	-76.4207	170.4334	929.9988	-169.4884	369.4062	892.697	-334.9562	177.6122	922.918	-272.1648	271.4035	972.4058	-53.7353	283.7024	941.0184	-378.589	101.8084	1294.9298	-158.505	120.3608	1221.1913	-90.1159	137.1178	1389.6423	-54.6593
160	0.795	193.1752	1374.2588	-245.9771	329.8206	1322.6477	-223.6645	157.1236	1342.3635	-115.5796	186.0497	1378.3014	-97.5838	188.8405	1396.6715	-137.7834	221.5078	1322.9865	-398.5181	261.9624	1316.4801	-429.4185	283.2249	1354.1675	-401.0129	391.7527	1131.6415	-207.1458	159.3182	1190.8796	-244.543	265.5024	1475.1498	-79.1147	352.8081	1556.6117	13.4142	295.7938	1579.445	13.3823	334.8175	1741.6227	27.3753	375.817	1808.0831	3.0872	364.206	1801.3607	53.8176	395.3499	1889.6494	6.0089	388.1028	1883.7812	53.2202	345.3769	1127.0319	-425.9282	297.3758	993.5082	-381.1187	288.8586	987.4685	-433.2942	323.6015	841.8163	-474.3777	337.2411	764.8405	-458.4571	359.4529	775.27	-494.2727	352.3755	689.7148	-469.3405	366.9393	698.8558	-511.4011	352.945	909.1918	-76.4048	170.4365	930.0169	-169.4594	369.4555	892.7041	-334.9604	177.6201	922.9133	-272.1773	271.467	972.3855	-53.7476	283.7456	940.9993	-378.5709	101.8063	1294.975	-158.5289	120.3616	1221.205	-90.1301	137.1468	1389.6781	-54.6905
161	0.8	193.1913	1374.2469	-245.9931	329.8575	1322.6501	-223.6532	157.1688	1342.4006	-115.555	186.0422	1378.2815	-97.6153	188.8528	1396.671	-137.7769	221.5169	1323.0101	-398.5208	261.9988	1316.4541	-429.4097	283.2448	1354.1613	-401.0075	391.7308	1131.636	-207.1293	159.33	1190.8931	-244.5479	265.5067	1475.1414	-79.1145	352.8409	1556.6039	13.4515	295.8372	1579.4506	13.3776	334.8543	1741.6108	27.4097	375.8666	1808.0712	3.1273	364.2487	1801.3568	53.8621	395.4094	1889.6272	6.0546	388.1582	1883.7684	53.2561	345.3968	1127.0502	-425.968	297.3836	993.4998	-381.0838	288.8617	987.4535	-433.2424	323.596	841.8098	-474.354	337.2945	764.8074	-458.3918	359.4874	775.2413	-494.1969	352.3741	689.6993	-469.3163	366.9332	698.8315	-511.3522	352.9912	909.1829	-76.4133	170.4649	930.0173	-169.4457	369.4248	892.707	-334.9261	177.6424	922.9028	-272.1576	271.474	972.3924	-53.7221	282.9967	941.0879	-378.8719	101.8346	1295.0048	-158.5328	120.3379	1221.2366	-90.1205	137.1884	1389.6975	-54.6885
